<svg width="32" height="32" viewBox="0 0 32 32" fill="none" xmlns="http://www.w3.org/2000/svg">
<g id="Device / computer">
<path id="Vector" d="M28 18.6666H26.6666V9.33325C26.6666 8.27239 26.2452 7.25497 25.4951 6.50482C24.7449 5.75468 23.7275 5.33325 22.6666 5.33325H9.33329C8.27243 5.33325 7.25501 5.75468 6.50487 6.50482C5.75472 7.25497 5.33329 8.27239 5.33329 9.33325V18.6666H3.99996C3.64634 18.6666 3.3072 18.8071 3.05715 19.0571C2.8071 19.3072 2.66663 19.6463 2.66663 19.9999V22.6666C2.66663 23.7274 3.08805 24.7449 3.8382 25.495C4.58834 26.2452 5.60576 26.6666 6.66663 26.6666H25.3333C26.3942 26.6666 27.4116 26.2452 28.1617 25.495C28.9119 24.7449 29.3333 23.7274 29.3333 22.6666V19.9999C29.3333 19.6463 29.1928 19.3072 28.9428 19.0571C28.6927 18.8071 28.3536 18.6666 28 18.6666ZM7.99996 9.33325C7.99996 8.97963 8.14044 8.64049 8.39048 8.39044C8.64053 8.14039 8.97967 7.99992 9.33329 7.99992H22.6666C23.0202 7.99992 23.3594 8.14039 23.6094 8.39044C23.8595 8.64049 24 8.97963 24 9.33325V18.6666H7.99996V9.33325ZM26.6666 22.6666C26.6666 23.0202 26.5262 23.3593 26.2761 23.6094C26.0261 23.8594 25.6869 23.9999 25.3333 23.9999H6.66663C6.313 23.9999 5.97387 23.8594 5.72382 23.6094C5.47377 23.3593 5.33329 23.0202 5.33329 22.6666V21.3333H26.6666V22.6666Z" fill="#A53DFF"/>
</g>
</svg>
