<svg width="32" height="32" viewBox="0 0 32 32" fill="none" xmlns="http://www.w3.org/2000/svg">
<g id="Business / growth graph">
<path id="Vector" d="M9.33333 21.3333C9.86377 21.3333 10.3725 21.1226 10.7475 20.7475C11.1226 20.3724 11.3333 19.8637 11.3333 19.3333C11.3398 19.2668 11.3398 19.1998 11.3333 19.1333L15.0533 15.4133H15.36H15.6667L17.8133 17.56C17.8133 17.56 17.8133 17.6266 17.8133 17.6666C17.8133 18.1971 18.024 18.7058 18.3991 19.0808C18.7742 19.4559 19.2829 19.6666 19.8133 19.6666C20.3438 19.6666 20.8525 19.4559 21.2275 19.0808C21.6026 18.7058 21.8133 18.1971 21.8133 17.6666V17.56L26.6667 12.6666C27.0622 12.6666 27.4489 12.5493 27.7778 12.3296C28.1067 12.1098 28.363 11.7974 28.5144 11.432C28.6658 11.0665 28.7054 10.6644 28.6282 10.2764C28.5511 9.88848 28.3606 9.53212 28.0809 9.25241C27.8012 8.97271 27.4448 8.78223 27.0568 8.70506C26.6689 8.62788 26.2668 8.66749 25.9013 8.81887C25.5358 8.97024 25.2235 9.22659 25.0037 9.55549C24.784 9.88438 24.6667 10.2711 24.6667 10.6666C24.6602 10.7331 24.6602 10.8001 24.6667 10.8666L19.8533 15.68H19.64L17.3333 13.3333C17.3333 12.8029 17.1226 12.2942 16.7475 11.9191C16.3725 11.544 15.8638 11.3333 15.3333 11.3333C14.8029 11.3333 14.2942 11.544 13.9191 11.9191C13.544 12.2942 13.3333 12.8029 13.3333 13.3333L9.33333 17.3333C8.8029 17.3333 8.29419 17.544 7.91912 17.9191C7.54405 18.2942 7.33333 18.8029 7.33333 19.3333C7.33333 19.8637 7.54405 20.3724 7.91912 20.7475C8.29419 21.1226 8.8029 21.3333 9.33333 21.3333ZM27.3333 26.6666H4.66667V3.99996C4.66667 3.64634 4.52619 3.3072 4.27614 3.05715C4.02609 2.8071 3.68696 2.66663 3.33333 2.66663C2.97971 2.66663 2.64057 2.8071 2.39052 3.05715C2.14048 3.3072 2 3.64634 2 3.99996V28C2 28.3536 2.14048 28.6927 2.39052 28.9428C2.64057 29.1928 2.97971 29.3333 3.33333 29.3333H27.3333C27.687 29.3333 28.0261 29.1928 28.2761 28.9428C28.5262 28.6927 28.6667 28.3536 28.6667 28C28.6667 27.6463 28.5262 27.3072 28.2761 27.0571C28.0261 26.8071 27.687 26.6666 27.3333 26.6666Z" fill="#A53DFF"/>
</g>
</svg>
