<svg width="71" height="72" viewBox="0 0 71 72" fill="none" xmlns="http://www.w3.org/2000/svg">
<path id="Vector" d="M2.53571 13.0897H68.4643C69.8648 13.0897 71 11.7874 71 10.1808V2.90881C71 1.30224 69.8648 0 68.4643 0H2.53571C1.13521 0 0 1.30224 0 2.90881V10.1808C0 11.7874 1.13521 13.0897 2.53571 13.0897ZM2.53571 42.1778H68.4643C69.8648 42.1778 71 40.8755 71 39.269V31.9969C71 30.3904 69.8648 29.0881 68.4643 29.0881H2.53571C1.13521 29.0881 0 30.3904 0 31.9969V39.269C0 40.8755 1.13521 42.1778 2.53571 42.1778ZM2.53571 71.2659H68.4643C69.8648 71.2659 71 69.9637 71 68.3571V61.085C71 59.4785 69.8648 58.1762 68.4643 58.1762H2.53571C1.13521 58.1762 0 59.4785 0 61.085V68.3571C0 69.9637 1.13521 71.2659 2.53571 71.2659Z" fill="black"/>
</svg>
