<svg width="32" height="32" viewBox="0 0 32 32" fill="none" xmlns="http://www.w3.org/2000/svg">
<g id="User Interface / Pencil">
<path id="Vector" d="M29.3333 9.65344C29.3343 9.47796 29.3007 9.30401 29.2343 9.14156C29.168 8.97911 29.0702 8.83136 28.9466 8.70677L23.2933 3.05344C23.1687 2.92986 23.021 2.83209 22.8585 2.76574C22.6961 2.69939 22.5221 2.66576 22.3466 2.66677C22.1712 2.66576 21.9972 2.69939 21.8348 2.76574C21.6723 2.83209 21.5246 2.92986 21.4 3.05344L17.6266 6.82677L3.05331 21.4001C2.92974 21.5247 2.83197 21.6724 2.76562 21.8349C2.69927 21.9973 2.66563 22.1713 2.66665 22.3468V28.0001C2.66665 28.3537 2.80712 28.6929 3.05717 28.9429C3.30722 29.193 3.64636 29.3334 3.99998 29.3334H9.65331C9.83988 29.3436 10.0265 29.3144 10.2011 29.2478C10.3756 29.1812 10.5343 29.0786 10.6666 28.9468L25.16 14.3734L28.9466 10.6668C29.0683 10.5375 29.1675 10.3888 29.24 10.2268C29.2528 10.1205 29.2528 10.013 29.24 9.90677C29.2462 9.8447 29.2462 9.78217 29.24 9.7201L29.3333 9.65344ZM9.10665 26.6668H5.33331V22.8934L18.5733 9.65344L22.3466 13.4268L9.10665 26.6668ZM24.2266 11.5468L20.4533 7.77344L22.3466 5.89344L26.1066 9.65344L24.2266 11.5468Z" fill="#A53DFF"/>
</g>
</svg>
